<?xml version="1.0" encoding="utf-8"?>
<!-- Generator: Adobe Illustrator 22.1.0, SVG Export Plug-In . SVG Version: 6.00 Build 0)  -->
<svg version="1.1" id="Calque_1" xmlns="http://www.w3.org/2000/svg" xmlns:xlink="http://www.w3.org/1999/xlink" x="0px" y="0px"
	 viewBox="0 0 78.2 99.1" style="enable-background:new 0 0 78.2 99.1;" xml:space="preserve">
<path d="M22.6,15.4l0.9,0.6c0.1,0,0.2,0,0.2,0s0,0,0.1,0l1.3-0.2c0.1,0,0.2-0.1,0.2-0.1l1-0.9c0.1-0.1,0.2-0.2,0.1-0.4l-0.2-1.2
	c0-0.1-0.1-0.2-0.1-0.2L25,12c-0.1-0.1-0.3-0.1-0.4-0.1l-1.4,0.3c-0.1,0-0.2,0.1-0.3,0.2l-0.8,1.2C22,13.7,22,13.8,22,14l0.3,1.3
	C22.4,15.2,22.5,15.3,22.6,15.4z M23.6,12.9l1-0.2l0.8,0.8l0.1,0.8l-0.7,0.6l-1,0.2l-0.6-0.4L23,13.8L23.6,12.9z M38.4,29.7
	c-0.5-0.1-1-0.2-1.5-0.3c1.1-0.4,2.3-1,3.3-1.6c0.2-0.1,0.4-0.1,0.6,0c0.1,0.1,0.2,0.2,0.2,0.3c0,0.1,0,0.2-0.1,0.3
	c-0.4,0.5-0.7,1-1.1,1.5c-0.3-0.1-0.6-0.1-0.9-0.2c0.1-0.1,0.2-0.2,0.2-0.3C38.8,29.5,38.6,29.6,38.4,29.7z M26.2,19.2
	c0-0.1-0.1-0.2-0.1-0.2L25,18c-0.1-0.1-0.3-0.1-0.4-0.1l-1.4,0.3c-0.1,0-0.2,0.1-0.3,0.2l-0.8,1.2C22,19.7,22,19.8,22,20l0.3,1.3
	c0,0.1,0.1,0.2,0.2,0.3l0.9,0.6c0.1,0,0.1,0.1,0.2,0.1c0,0,0,0,0.1,0l1.3-0.2c0.1,0,0.2-0.1,0.2-0.1l1-0.9c0.1-0.1,0.2-0.2,0.1-0.4
	L26.2,19.2z M24.8,20.9l-1,0.2l-0.6-0.4L23,19.8l0.6-0.9l1-0.2l0.8,0.8l0.1,0.8L24.8,20.9z M22.8,42.6c-1.4,0-2.3,1.7-2.3,4.2
	s0.9,4.2,2.3,4.2c1.5,0,2.6-1.9,2.6-4.2C25.4,44.5,24.3,42.6,22.8,42.6z M22.9,50.2L22.9,50.2c-0.9,0-1.6-1.4-1.6-3.3
	s0.6-3.3,1.5-3.3c0.1,0,0.2,0,0.3,0.1C23,45.6,23,47.9,22.9,50.2z M23.8,49.5c0-1.8,0.1-3.5,0.1-5.1c0.3,0.6,0.6,1.5,0.6,2.4
	C24.5,47.9,24.2,48.9,23.8,49.5z M37,32c0-0.1-0.1-0.3-0.2-0.4c-0.1-0.1-0.3-0.1-0.4,0c0,0-0.1,0-0.2,0c-0.2,0-0.4-0.1-0.6-0.2
	c-0.3-0.2-0.6-0.3-0.9-0.5c0.1,0,0.1,0,0.2-0.1c-1-0.2-2-0.5-2.9-0.7c-0.3,0-0.6-0.1-0.9-0.1c-1,0-2.4,0.2-3.5,1.1
	c-0.5,0.4-0.7,0.8-0.5,1.2c0.1,0.2,0.3,0.3,0.5,0.3c0.1,0,0.2-0.1,0.4-0.1c0.3-0.2,0.9-0.6,1.8-0.6c0.9-0.1,2.2,0.2,3.4,0.8
	c0.8,0.4,1.6,0.5,2.2,0.5c0.7,0,1.1-0.3,1.3-0.5C37,32.5,37.1,32.1,37,32z M30.6,31.2c-0.2,0-0.4,0-0.5,0
	C30.2,31.1,30.4,31.1,30.6,31.2C30.6,31.1,30.6,31.1,30.6,31.2z M35.4,32.4c-0.5,0-1.1-0.2-1.8-0.5c-0.5-0.2-0.9-0.4-1.3-0.5
	c0.3,0,0.6-0.1,0.9-0.1c0.7,0.2,1.4,0.5,2.1,0.9c0.2,0.1,0.3,0.2,0.5,0.2C35.6,32.4,35.5,32.4,35.4,32.4z M35.2,34.1
	c-0.9-0.6-2.1-1.1-3.5-1.1c-1.5-0.1-2.9,0.3-3.7,1c-0.2,0.1-0.2,0.4-0.1,0.6c0.1,0.2,0.4,0.2,0.6,0.1c0.5-0.4,1.3-0.7,2.2-0.8
	c0,0.1,0,0.2,0,0.3c0,0.7,0.6,1.3,1.3,1.3c0.7,0,1.3-0.6,1.3-1.3c0.5,0.2,1,0.4,1.3,0.7c0.1,0.1,0.2,0.1,0.3,0.1s0.3-0.1,0.3-0.2
	C35.4,34.5,35.3,34.3,35.2,34.1z M32,34.6c-0.2,0-0.4-0.2-0.4-0.4c0-0.1,0-0.2,0.1-0.3c0.2,0,0.5,0,0.7,0.1c0,0.1,0.1,0.1,0.1,0.2
	C32.4,34.4,32.3,34.6,32,34.6z M37.7,31.6c0.5,0.1,1,0.2,1.5,0.3c-0.5,0.4-0.9,0.8-1.3,1.2c-0.1,0.1-0.2,0.1-0.3,0.1s-0.2,0-0.3-0.1
	c-0.2-0.1-0.2-0.4-0.1-0.5C37.4,32.2,37.5,31.9,37.7,31.6z M37.7,35.6c0,0-0.7,1.9-0.7,4.1c0,0.4-0.3,0.9-0.8,1.2
	C36.1,41,36,41,36,41c-0.1,0-0.3-0.1-0.4-0.2c-0.1-0.2-0.1-0.5,0.1-0.6c0.3-0.2,0.4-0.4,0.4-0.5c-0.1-2.4,0.7-4.4,0.8-4.5
	c0.1-0.2,0.3-0.3,0.6-0.2C37.7,35.2,37.8,35.4,37.7,35.6z M30.9,36.5l-1.6-0.3c-0.6-0.1-0.4-1,0.2-0.9l1.6,0.3
	C31.6,35.8,31.4,36.6,30.9,36.5z M54.4,42.5c-1.5,0-2.6,1.9-2.6,4.2s1.1,4.2,2.6,4.2c1.4,0,2.3-1.7,2.3-4.2S55.8,42.5,54.4,42.5z
	 M52.7,46.7c0-0.4,0-0.8,0.1-1.2c0.1,1,0.1,2,0.2,3.1C52.8,48.1,52.7,47.4,52.7,46.7z M54.4,50.1c-0.2,0-0.3,0-0.5-0.1
	c-0.1-2.2-0.3-4.4-0.4-6.1c0.3-0.3,0.5-0.5,0.9-0.5c0.8,0,1.5,1.4,1.5,3.3S55.3,50.1,54.4,50.1z M49.5,31.4
	c-2.1-0.2-4.1-0.5-6.1-0.8c0.8-0.3,1.7-0.4,2.5-0.4C46.9,30.2,48.4,30.4,49.5,31.4C49.5,31.3,49.5,31.3,49.5,31.4z M41.4,40.9
	c-0.1,0.1-0.2,0.2-0.4,0.2c-0.1,0-0.2,0-0.2-0.1c-0.5-0.4-0.8-0.8-0.8-1.2c0.1-2.2-0.7-4.1-0.7-4.1c-0.1-0.2,0-0.5,0.2-0.6
	s0.5,0,0.6,0.2c0,0.1,0.8,2,0.8,4.5c0,0.1,0.1,0.3,0.4,0.5C41.5,40.4,41.5,40.7,41.4,40.9z M33.7,41.7c0.1,0.2,0,0.5-0.2,0.6
	c-0.5,0.2-0.9,0.6-1.2,1.1c-0.1,0.1-0.2,0.2-0.4,0.2c-0.1,0-0.2,0-0.2-0.1c-0.2-0.1-0.2-0.4-0.1-0.6c0.4-0.6,0.9-1,1.5-1.3
	C33.3,41.4,33.6,41.5,33.7,41.7z M48.6,39.3c-0.1,0.1-0.2,0.2-0.4,0.2c-0.1,0-0.1,0-0.2-0.1c-1.2-0.7-2.8-1-4.5-1c-0.3,0-0.7,0-1,0
	c-0.2,0-0.4-0.2-0.5-0.4c0-0.2,0.2-0.5,0.4-0.5c0.1,0,0.2,0,0.3,0c0.9,0.5,1.8,0.8,2.9,0.8c0.6,0,1.1-0.1,1.6-0.2
	c0.4,0.2,0.8,0.3,1.2,0.5C48.6,38.8,48.7,39.1,48.6,39.3z M76.3,28.4c-0.2-0.3-0.5-0.5-0.9-0.6c-6.4-1.4-9.6-6.4-13-11.7
	c-0.5-0.8-1-1.5-1.5-2.3c-0.1-0.1-0.2-0.3-0.3-0.3c0-0.2-0.1-0.3-0.2-0.4C57,8.2,52.8,3.4,45.2,1.6c-0.1,0-0.2,0-0.3,0
	c-0.3,0-0.6,0.1-0.8,0.3c-0.3,0.2-0.5,0.6-0.6,1c-0.2,2.1-1.1,5.6-4.6,5.6c-3.6,0-4.5-3.5-4.7-5.6c0-0.4-0.2-0.7-0.5-1
	c-0.2-0.2-0.5-0.3-0.8-0.3c-0.1,0-0.2,0-0.3,0c-7.2,1.7-11.2,5.9-14.1,9.9c0,0,0,0.1-0.1,0.1l0,0v0.1l0,0v0.1c0,0,0,0,0,0.1
	s0,0.1,0,0.2v0.1c0,0.1,0,0.1,0,0.2v0.1c0,0.1,0,0.1,0,0.2v0.1c0,0.1,0,0.1,0.1,0.1V13l0.1,0.1c0,0,0,0.1,0.1,0.1l0.1,0.1
	c0,0,0,0,0.1,0.1l0,0H19c0,0,0,0,0.1,0l0,0l0.1,0.2l-0.1,0.1l-0.2,0.1l-0.5-0.2c-0.1-0.1-0.3-0.1-0.5-0.1c-0.5,0-0.9,0.2-1.1,0.6
	c-0.4,0.6-0.8,1.3-1.3,2c-3.4,5.3-6.6,10.2-13,11.7c-0.4,0.1-0.7,0.3-0.9,0.6c-0.2,0.3-0.2,0.7-0.1,1.1L3.4,36c0.2,0.6,0.7,1,1.3,1
	h0.1c0.8-0.1,7.5-0.7,13.8-1.2c0.1,1.3,0.7,2.9,1.8,4.7c0.1,0.2,0.3,0.4,0.4,0.6c-1.4,1.2-2.3,3.4-2.3,5.7c0,3.2,1.6,5.8,3.7,6.5
	c0,4.3,0.1,7.7,0.4,10c0,0.1,0,0.2,0.1,0.3c0.1,0.5,0.5,0.9,1.1,1c0.1,0,0.2,0,0.2,0h0.2c0,3.8,0,7.3,0.1,10.5c0,0.2,0,0.4,0.1,0.6
	c0.2,0.5,0.7,0.9,1.2,0.9h0.1c0.5,0,1-0.3,1.2-0.8c0.2,3.4,0.3,6.4,0.5,9.2c0,0.2,0.1,0.3,0.1,0.5c0.2,0.4,0.6,0.7,1,0.8
	c0.1,0,0.1,0,0.2,0c0.7,0,1.2-0.5,1.3-1.2c0.1-0.8,0.2-1.7,0.4-2.6c0.6,2.7,1.3,5.3,2,7.5c0.1,0.6,0.7,1,1.3,1c0,0,0,0,0.1,0
	c0.4,0,0.7-0.2,0.9-0.4c0.2-0.3,0.4-0.6,0.4-1c-0.1-1.5-0.1-3-0.2-4.5c0.6,1.4,1.2,2.7,1.9,3.9c0,0,0,0,0,0.1
	c0.2,1.2,0.3,2.4,0.6,3.6c0.1,0.7,0.7,1.1,1.3,1.1c0.1,0,0.1,0,0.2,0c0.1,0,0.2-0.1,0.4-0.1c0,0,0,0,0.1,0l0,0c0,0,0,0,0.1,0
	s0.1-0.1,0.2-0.1l0,0c0.2-0.2,0.3-0.4,0.4-0.6c0.2-0.6,0.3-1.4,0.5-2.2c0,1.9,0.1,3.7,0,5.5c0,0.7,0.6,1.3,1.3,1.3l0,0
	c0.6,0,1.1-0.4,1.3-0.9v-0.1c0.6-2,1.2-4.3,1.6-6.7c0.1,0,0.2,0,0.3,0h0.1c0.6,0,1-0.4,1.2-1.1c0.4-1.3,0.7-2.6,1-4
	c0.2,0.1,0.4,0.2,0.7,0.2c0.7,0,1.2-0.5,1.3-1.1c0,0,0.1-0.6,0.2-1.6c0.1,0,0.2,0,0.4,0c0.7,0,1.2-0.5,1.3-1.2
	c0-0.1,0.2-1.9,0.4-4.3l0,0c0.1,0,0.2,0,0.2,0c0.5-0.1,0.9-0.4,1-0.9c0.1-0.1,0.1-0.3,0.1-0.4c0.2-2.7,0.2-6.8,0.2-10.6
	c0.5-0.1,0.9-0.6,1-1.2c0.6-2.8,0.8-6.2,0.8-10.3c2.3-0.5,4.1-3.3,4.1-6.6c0-2.6-1-4.8-2.6-6c0.1-0.1,0.1-0.2,0.2-0.3
	c1.1-1.9,1.8-3.6,1.9-4.9c6.3,0.6,13.3,1.2,14.7,1.4h0.1h0.1c0.6,0,1.1-0.4,1.3-1l1.9-6.5C76.5,29.1,76.4,28.7,76.3,28.4z
	 M23.9,59.7c-0.1-2.2-0.1-4.7-0.1-7.2c0.4-0.1,0.8-0.3,1.2-0.6C24.6,54.6,24.3,57.2,23.9,59.7z M23.1,51.7c-1.7,0-3.1-2.2-3.1-4.9
	s1.4-4.9,3.1-4.9s3.1,2.2,3.1,4.9S24.9,51.7,23.1,51.7z M25.7,71.9c-0.1-6.3,0-13.5,0.3-21.2c0.4-0.7,0.7-1.6,0.9-2.5
	c-0.2,2.3,0.1,4.9,0.7,7.6C27.4,61.9,26.7,67.3,25.7,71.9z M28.7,80.5c-0.3-4.6-0.4-10-0.6-16.6c0-0.3,0-0.5,0-0.8
	c0.2-1.5,0.3-3,0.4-4.6c0.6,1.9,1.2,3.6,2,5.1C29.8,70,29.2,75.8,28.7,80.5z M30.4,72.7c0.3-2.4,0.5-5,0.7-7.7
	c0.6,0.9,1.1,1.7,1.7,2.2c-0.1,2.5-0.1,4.9-0.1,7.4c0,3.9,0.1,7.8,0.2,11.6C31.8,82,30.9,77.4,30.4,72.7z M32.9,66
	c-0.5-0.7-1.1-1.5-1.6-2.5c0-0.1,0-0.1-0.1-0.2c-2-4.1-3.6-10.3-3.3-14.8c0.2,0.4,0.4,0.7,0.6,1.1c-0.2,0.5-0.1,0.8,0.1,1
	c0.2,0.2,0.5,0.4,0.8,0.4l0,0c0,0,0,0,0.1,0c0.2,0.2,0.3,0.4,0.5,0.6v0.1c0.1,3.8,1.7,10.1,3,12.5C32.9,64.6,32.9,65.3,32.9,66z
	 M42.9,46.7c1.1,0.6,2.5,1.2,3.7,1.6l0,0c0.7,0.9,1.2,1.6,1.2,1.9h-0.1c-0.9,0-3.3-1.2-5.3-2.7c-1-0.8-1.9-1.6-2.4-2.3
	c-0.6-0.8-0.6-1.2-0.5-1.3l0,0C40.2,44.9,41.4,45.9,42.9,46.7z M40.7,44c0.8,0.2,1.9,0.8,3.1,1.7c0.5,0.4,1,0.8,1.4,1.2
	c-0.7-0.3-1.3-0.6-1.9-0.9C42.3,45.4,41.3,44.7,40.7,44z M36.7,48.2c-0.5,0-1,0-1.5-0.1c0,0,0.1,0,0.1-0.1c0.4-0.3,0.8-0.6,1.1-0.9
	c0.3,0,0.5,0,0.8,0c1.1,0,2.1-0.1,3-0.3c0.2,0.2,0.5,0.5,0.8,0.7C39.7,47.9,38.2,48.2,36.7,48.2z M37.5,49c-0.1,4.1-0.6,10-1.2,14
	c-0.1-3.6-0.1-7,0-11c0.6-0.7,0.9-1.6,0.9-2.9C37.4,49,37.4,49,37.5,49z M39.5,46.1c-0.7,0.1-1.5,0.2-2.2,0.2
	c0.2-0.3,0.5-0.5,0.6-0.8c0.4-0.5,0.5-0.9,0.6-1.2c0,0.4,0.2,0.8,0.7,1.5C39.3,45.8,39.4,46,39.5,46.1z M37.2,45
	c-0.5,0.8-1.4,1.6-2.4,2.3c-1.2,0.9-2.7,1.7-3.9,2.2c0.7-0.5,1.4-1,2-1.7c1-1.1,1.9-2.4,2.7-3.7c0.8-0.3,1.4-0.5,1.8-0.5
	c0.2,0,0.3,0.1,0.4,0.1C37.8,43.8,37.8,44.2,37.2,45z M32.3,47.2c-0.8,0.9-1.8,1.6-2.7,2.1c0.6-0.9,2.1-2.6,3.9-3.9
	c0.2-0.2,0.4-0.3,0.6-0.4C33.5,45.8,32.9,46.6,32.3,47.2z M33.5,53.2c-0.2,3.1-0.4,6-0.5,8.8c-0.9-2.5-1.9-6.7-2.1-9.8
	c0.7,0.5,1.4,0.8,2.2,0.8c0.1,0,0.2,0,0.3,0c0,0,0,0,0.1,0V53.2z M33.1,52.1c-0.9,0-1.9-0.6-2.7-1.5c1.1-0.3,2.4-1,3.7-1.8
	c0,0,0,0,0.1,0c0.7,0.1,1.5,0.2,2.3,0.2c0,1.2-0.3,2-0.8,2.5C35,52.1,34,52.2,33.1,52.1z M33.6,75.1C33.6,75.1,33.6,75,33.6,75.1
	c0-0.2,0-0.3,0-0.5c0-7.1,0.2-13.7,0.7-21.4v-0.3c0.4-0.1,0.8-0.2,1.1-0.3c-0.2,6.4,0,11.3,0.3,17.7c0.3,5.6,0.8,11,1.4,16.1
	C35.5,83,34.3,79.2,33.6,75.1z M40.6,55.7c0,0.7,0,1.4,0,2.5c-0.1,13.6-0.9,25.8-2,32c-0.9-6.2-1.6-12.9-2-19.9
	c-0.1-1.1-0.1-2.2-0.2-3.3l0,0c0.8-2.9,1.7-12.8,1.9-18c0.4,0,0.8-0.1,1.2-0.2c0.1,1.2,0.5,2.1,1.1,2.8
	C40.6,53.4,40.6,54.3,40.6,55.7z M40.4,48.6c0.5-0.1,1-0.2,1.4-0.4l0,0c1.4,1.1,3.4,2.2,4.7,2.6c-0.9,0.9-2,1.3-3.2,1.2
	C42,52,40.6,50.9,40.4,48.6z M44.4,58.5c0,3-0.3,6-0.7,8.6c-0.2-4.5-0.5-9.3-0.6-14.1c0.1,0,0.2,0,0.2,0c0.1,0,0.2,0,0.4,0
	s0.3,0,0.5,0C44.3,54.8,44.4,56.6,44.4,58.5z M43.8,82.2c-0.3,3.8-0.9,7.5-1.7,10.8c0-3-0.1-6.1-0.3-9.2c-0.2-3.9-0.4-7.6-0.8-11.4
	c0.2-4.4,0.3-9.2,0.4-14.1c0-1.1,0-1.9,0-2.5c0-1.2,0-2,0-3.3c0.2,0.1,0.5,0.3,0.7,0.4c0.2,6,0.5,11.9,0.8,17.4c0,0.1,0,0.1,0,0.2
	C43.3,74.6,43.5,78.5,43.8,82.2C43.9,82.2,43.8,82.2,43.8,82.2z M43.9,70.3c0.9-3.3,1.4-7.5,1.4-11.8c0-1.9-0.1-3.8-0.3-5.7
	c0.7-0.2,1.3-0.6,1.9-1c0,1,0,2.3,0,3.2c0,5.3-0.4,10.4-1,14.6v0.1c-0.4,2.7-1,5.1-1.6,6.9C44.1,74.5,44,72.4,43.9,70.3z M45.1,86.3
	c-0.2-2.4-0.5-5-0.7-7.8l0,0c0.7-1.4,1.2-3.3,1.7-5.6c0.1,0.7,0.2,1.5,0.2,2.2C46.5,79,46,82.8,45.1,86.3z M47.9,80.5
	c-0.5-3.9-0.9-7.2-1.2-10.8c0.3-2.2,0.6-4.6,0.8-7.1c0.4,4.9,0.8,8.9,1.1,12.2C48.4,76.9,48.2,78.9,47.9,80.5z M49.8,77.1
	c-0.6-5.1-1.2-12.5-2-22.5c0-1,0-2.6,0-3.5c0.4,0,0.6-0.2,0.7-0.3c0.2-0.2,0.2-0.5,0.1-0.9c0.1-0.1,0.2-0.3,0.3-0.4
	c0.1,6.7,0.5,13,1.2,18.7C50.2,71.1,50,74.5,49.8,77.1z M51.3,71.2c-0.1-1-0.3-2.1-0.4-3.2v-0.1v-0.1c-0.5-4.4-0.9-9.2-1.1-14.2
	c0.4,2.3,0.9,4.4,1.4,6.3V60C51.4,63.3,51.4,67.6,51.3,71.2z M49.7,47.9C49.7,47.8,49.7,47.8,49.7,47.9c0.1-0.4,0.3-0.7,0.4-1
	c0,1.5,0.5,2.9,1.2,3.9c0.2,2.8,0.3,5.5,0.6,8.1C51.1,55.7,50.3,51.9,49.7,47.9z M52.8,60.1c-0.3-2.7-0.5-5.4-0.6-8.3
	c0.3,0.2,0.6,0.4,0.9,0.5C53.1,55,53.1,57.7,52.8,60.1z M57.2,46.7c0,2.7-1.4,4.9-3.1,4.9c-1.7,0-3.1-2.2-3.1-4.9s1.4-4.9,3.1-4.9
	S57.2,44,57.2,46.7z M55,39.6c-0.2,0.4-0.6,0.9-0.9,1.4c-0.9,0-1.8,0.5-2.4,1.3c0.2-0.9,0.4-1.7,0.6-2.6c0,0,0,0.1,0.1,0.1
	c0.1,0.1,0.2,0.1,0.3,0.1c0.1,0,0.2,0,0.3-0.1c0.9-0.9,1.5-2.3,1.6-3.9c0.2-0.1,0.4-0.3,0.6-0.4c0.2-0.1,0.3-0.4,0.2-0.6
	c-0.1-0.2-0.4-0.3-0.6-0.2c-0.8,0.4-1.6,1.1-2.2,1.9c0,0,0,0-0.1-0.1v-0.1c0-0.2-0.1-0.5-0.4-0.5c-0.2,0-0.5,0.1-0.5,0.4
	c0,0.3-0.1,0.6-0.2,0.9c-0.3,1.1-0.9,1.5-0.9,1.5l0,0c-2.4,2-2.5,2.6-2.7,4.2V43c0,0.2,0.1,0.5,0.4,0.5c0,0,0,0,0.1,0
	c0.2,0,0.4-0.2,0.4-0.4V43c0.2-1.3,0.2-1.7,2.4-3.6c0,0,0.1-0.1,0.3-0.2c-0.6,3-1.6,7-3.2,9.7c-0.2-0.3-0.4-0.6-0.7-1
	c-0.9-1.1-2.1-2.2-3.2-3c-1.3-1-2.7-1.7-3.7-1.9c0.1,0,0.3-0.1,0.4-0.1h0.5c0.5,0,0.6-0.4,0.3-0.7c-0.1-0.1-0.5-0.5-1.1-0.3
	c-0.2,0-0.4,0.1-0.5,0.2L40,42.2c-0.1,0.1-0.2,0.2-0.3,0.2c-0.1,0.1-0.3,0.1-0.5,0.1s-0.3,0-0.6,0c-0.2,0-0.4,0-0.6,0
	c-0.2,0-0.4-0.1-0.5-0.1c-0.2-0.1-0.3-0.1-0.3-0.2c0,0-0.1-0.1-0.2-0.1c-0.2-0.1-0.3-0.1-0.5-0.2c-0.5-0.1-1,0.2-1.1,0.3
	c-0.3,0.4-0.1,0.8,0.3,0.8c0,0,0.1,0,0.3,0c-0.9,0.3-2.1,0.9-3.2,1.7c-1.1,0.8-2.3,1.9-3.2,3c-0.3,0.3-0.5,0.6-0.7,0.9
	c-1.6-2.6-2.8-6.2-3.3-9.1c2.1,1.8,2.2,2.2,2.3,3.5v0.1c0,0.2,0.2,0.4,0.4,0.4c0,0,0,0,0.1,0c0.2,0,0.4-0.3,0.4-0.5v-0.1
	c-0.2-1.6-0.4-2.1-2.7-4.2l0,0c0,0-0.3-0.3-0.6-0.9v-0.1c-0.2-0.4-0.3-0.8-0.4-1.4c0-0.2-0.2-0.4-0.5-0.4c-0.2,0-0.3,0.1-0.3,0.3
	c-0.5-0.6-1.2-1.2-1.8-1.5c-0.2-0.1-0.5,0-0.6,0.2s0,0.5,0.2,0.6s0.4,0.2,0.6,0.4c0.1,1.7,0.7,3,1.6,3.9c0.1,0.1,0.2,0.1,0.3,0.1
	s0.2,0,0.3-0.1l0,0c0.1,0.7,0.3,1.5,0.5,2.3c-0.6-0.6-1.4-1-2.2-1c-0.1,0-0.3,0-0.4,0c-0.4-0.5-0.8-1.1-1-1.5
	c-1.3-2.1-2.4-4.9-0.8-6c1-0.7,2.6,0.8,3.2,1.4c0.1,0.1,0.3,0.1,0.4,0.1l0,0c0.1,0,0.3-0.1,0.3-0.2c1.3-1.6,1.9-3.3,2.1-5.8
	c0,0,0,0,0-0.1c0.3-0.2,0.6-0.4,0.9-0.6c3.8,1.2,8,2.2,12.6,3c0,0.3-0.1,0.6-0.1,0.9c0,3,2.3,5.5,5.2,5.5c2.7,0,4.9-2.2,5.2-5
	c0.4,0,0.7,0.1,1.1,0.1h0.2c0,0.3,0,0.6,0,0.9c-0.1-0.1-0.1-0.2-0.2-0.3l0,0c-0.2,0-0.4,0-0.6-0.1l0,0c0,0.2-0.1,0.3-0.1,0.5
	c0.2,0.3,0.4,0.6,0.7,0.9c0.1,0.1,0.2,0.2,0.3,0.2l0,0c0.1,0,0.3,0,0.4-0.1c0.7-0.6,2.3-2.1,3.3-1.4C57.4,34.7,56.2,37.4,55,39.6z
	 M52.2,39.2c0-0.1,0-0.1,0-0.2c0,0,0.1-0.1,0.1-0.2c0.3-0.8,0.6-1.4,1.1-2C53.2,37.8,52.8,38.6,52.2,39.2L52.2,39.2z M24.8,39.1
	c-0.5-0.5-0.9-1.3-1.1-2.2c0.4,0.6,0.8,1.2,1.1,2l0,0C24.7,38.9,24.7,39,24.8,39.1z M25.9,30.1C26,30,26,30,26.1,29.9
	c-0.2,1.6-0.6,2.8-1.4,3.9v-0.1C24.5,32.3,24.9,31.1,25.9,30.1z M35.5,29.1c0.4-0.3,0.7-0.6,1.1-0.9l0,0c0.6-0.6,1.2-1.2,1.7-1.8
	l0,0l0,0l0,0l0,0l0.1-0.1l0,0c0.1,0,0.1,0,0.2,0c2.5,0,4.8,0.3,6.9,1c-1.9,0.7-3.7,1.7-5.3,2.8c0.4,0.1,0.8,0.1,1.2,0.2
	c1.6-1.1,3.4-1.9,5.2-2.5h0.1c1.1,0.5,2.1,1,2.9,1.6c0.1,0.8,0.2,1.5,0.3,2.1c0.3,0,0.6,0.1,0.9,0.1c-0.1-0.4-0.2-0.8-0.3-1.3
	c0.6,0.6,1,1.3,1.2,1.9C43.3,31.5,35.4,30,28.9,28c2.2-0.9,5-1.5,8.2-1.7c-0.4,0.4-0.8,0.9-1.3,1.3l0,0c-0.5,0.5-1.1,0.9-1.6,1.3
	C34.7,28.9,35.1,29,35.5,29.1z M72.9,35.1c-1.7-0.2-9.3-0.9-15.8-1.5l0,0c-0.2-0.3-0.5-0.6-0.8-0.8c-0.9-0.6-2-0.4-3.3,0.6
	c0-1.7-0.9-3.3-2.5-4.7l-0.1-0.1c-1-0.8-2.2-1.4-3.6-2c-2.4-0.9-5.2-1.4-8.1-1.4c-6.1,0-11.1,1.5-13.4,4.1c-1.1,1.2-1.5,2.5-1.4,4
	c-1.3-1-2.5-1.3-3.4-0.7c-0.4,0.3-0.7,0.6-0.9,1.1C13.3,34.4,6.4,35,4.7,35.1L3,29.3c6.8-1.7,10.1-6.9,13.7-12.3
	c0.4-0.5,0.7-1.1,1.1-1.7l0.7,0.3c0.1,0,0.2,0,0.3,0l1.2-0.5c0.1,0,0.2-0.1,0.2-0.2l0.5-1.2c0.1-0.1,0.1-0.3,0-0.4l-0.5-1.1
	c0,0,0-0.1-0.1-0.1c2.6-3.5,6.2-7.2,12.3-8.7c0.6,4.3,2.9,6.7,6.4,6.7s5.8-2.5,6.4-6.7c6.6,1.7,10.4,5.9,13.5,10.3L56.9,16
	c-0.1,0.2-0.1,0.4,0,0.6s0.4,0.2,0.6,0.1l2.2-1.5c0.4,0.6,0.9,1.3,1.3,1.9c3.5,5.5,6.9,10.6,13.7,12.3L72.9,35.1z"/>
</svg>
