<?xml version="1.0" encoding="utf-8"?>
<!-- Generator: Adobe Illustrator 22.1.0, SVG Export Plug-In . SVG Version: 6.00 Build 0)  -->
<svg version="1.1" id="Calque_1" xmlns="http://www.w3.org/2000/svg" xmlns:xlink="http://www.w3.org/1999/xlink" x="0px" y="0px"
	 viewBox="0 0 100 125" style="enable-background:new 0 0 100 125;" xml:space="preserve">
<path d="M81.5,52.4V24.5c0-0.5-0.5-1-1-1h-14c-0.5,0-1,0.5-1,1v27.1c-1.4,0.5-2.7,1.1-4,1.8v-13c0-0.5-0.5-1-1-1h-14
	c-0.5,0-1,0.5-1,1v48c0,0.5,0.5,1,1,1h12c3.8,3.1,8.7,5,14,5c12.1,0,22-9.9,22-22C94.5,63.6,89.2,55.9,81.5,52.4z M67.5,25.5h12
	v26.1c-2.2-0.7-4.5-1.1-7-1.1c-1.7,0-3.4,0.2-5,0.6V25.5z M47.5,87.5v-46h12v13.3c-5.5,4-9,10.5-9,17.7c0,5.8,2.2,11.1,5.9,15H47.5z
	 M72.5,92.5c-11,0-20-9-20-20s9-20,20-20s20,9,20,20S83.5,92.5,72.5,92.5z M76.5,68.8c0,0.5,0.5,1,1,1s1-0.5,1-1
	c0-2.6-2.2-4.7-5-4.7v-1.5c0-0.5-0.5-1-1-1s-1,0.5-1,1V64c-2.8,0-5,2.1-5,4.7s2.2,4.7,5,4.7V79c-1.7,0-3-1.2-3-2.7c0-0.5-0.5-1-1-1
	s-1,0.5-1,1c0,2.6,2.2,4.7,5,4.7v1.5c0,0.5,0.5,1,1,1s1-0.5,1-1V81c2.8,0,5-2.2,5-4.7c0-2.6-2.2-4.7-5-4.7V66
	C75.2,66,76.5,67.3,76.5,68.8z M71.5,71.5c-1.7,0-3-1.2-3-2.7s1.3-2.7,3-2.7V71.5z M76.5,76.2c0,1.5-1.3,2.7-3,2.7v-5.5
	C75.2,73.5,76.5,74.8,76.5,76.2z M72.5,56.5c-8.8,0-16,7.2-16,16s7.2,16,16,16s16-7.2,16-16S81.3,56.5,72.5,56.5z M72.5,86.5
	c-7.7,0-14-6.3-14-14s6.3-14,14-14s14,6.3,14,14S80.2,86.5,72.5,86.5z M20.5,77.5h-14c-0.5,0-1,0.5-1,1v10c0,0.5,0.5,1,1,1h14
	c0.5,0,1-0.5,1-1v-10C21.5,78,21,77.5,20.5,77.5z M19.5,87.5h-12v-8h12V87.5z M40.5,59.5h-14c-0.5,0-1,0.5-1,1v28c0,0.5,0.5,1,1,1
	h14c0.5,0,1-0.5,1-1v-28C41.5,60,41,59.5,40.5,59.5z M39.5,87.5h-12v-26h12V87.5z M6.5,73.5c0.3,0,0.5-0.1,0.7-0.3l58.1-58.1
	l3.6,3.6c0.2,0.2,0.5,0.3,0.7,0.3c0.1,0,0.2,0,0.3,0c0.3-0.1,0.6-0.4,0.7-0.7l2.9-11.5c0.1-0.3,0-0.7-0.3-1s-0.6-0.3-1-0.3L60.8,8.4
	c-0.4,0.1-0.6,0.4-0.7,0.7c-0.1,0.4,0,0.7,0.2,1l3.6,3.6L5.8,71.8c-0.4,0.4-0.4,1,0,1.4C6,73.4,6.2,73.5,6.5,73.5z M63,9.9l8.2-2
	l-2,8.1L63,9.9z M9.5,25.5h12c0.5,0,1-0.5,1-1V13.6l5.2-5.2c0.4-0.4,0.4-1,0-1.4s-1-0.4-1.4,0l-4.6,4.6c-0.1,0-0.1,0-0.2,0h-12
	c-0.5,0-1,0.5-1,1v12C8.5,25,9,25.5,9.5,25.5z M19.7,13.5l-4.1,4.1l-4.1-4.1H19.7z M10.5,15.2l4.5,4.5c0.2,0.2,0.5,0.3,0.7,0.3
	c0.3,0,0.5-0.1,0.7-0.3l4.1-4.1v7.9h-10V15.2z M27.5,14.5h20c0.6,0,1,0.4,1,1c0,0.6-0.4,1-1,1h-20c-0.6,0-1-0.4-1-1
	C26.5,14.9,26.9,14.5,27.5,14.5z M48.5,21.5c0,0.6-0.4,1-1,1h-20c-0.6,0-1-0.4-1-1s0.4-1,1-1h20C48.1,20.5,48.5,20.9,48.5,21.5z"/>
</svg>
