<?xml version="1.0" encoding="utf-8"?>
<!-- Generator: Adobe Illustrator 22.1.0, SVG Export Plug-In . SVG Version: 6.00 Build 0)  -->
<svg version="1.1" id="Calque_1" xmlns="http://www.w3.org/2000/svg" xmlns:xlink="http://www.w3.org/1999/xlink" x="0px" y="0px"
	 viewBox="0 0 100 125" style="enable-background:new 0 0 100 125;" xml:space="preserve">
<path d="M91.5,47.8V24.4c0-1.2-0.8-2.4-2-2.8L52.8,8.1c-0.2-0.1-0.5-0.1-0.7,0L15.5,21.6c-1.2,0.4-2,1.6-2,2.8v23.4
	c0,8.8,6.5,18.9,19.3,30c9.5,8.2,19.1,14,19.2,14c0.2,0.1,0.3,0.1,0.5,0.1s0.4,0,0.5-0.1s9.7-5.8,19.2-14
	C85,66.7,91.5,56.6,91.5,47.8z M52.5,89.8c-4.5-2.8-37.1-23.6-37-42V24.4c0-0.4,0.3-0.8,0.7-0.9l36.3-13.4l36.3,13.4
	c0.4,0.1,0.7,0.5,0.7,0.9v23.4C89.6,66.2,57,87,52.5,89.8z M83.7,25.9L52.8,14.6c-0.2-0.1-0.5-0.1-0.7,0L21.3,25.9
	c-1.1,0.4-1.8,1.4-1.8,2.5v19.7c0,7.4,5.4,16,16.3,25.4c8,6.9,16.1,11.8,16.2,11.8c0.2,0.1,0.3,0.1,0.5,0.1s0.4,0,0.5-0.1
	c0.1,0,8.2-4.9,16.2-11.8C80,64.1,85.5,55.6,85.5,48.2V28.5C85.5,27.3,84.8,26.3,83.7,25.9z M83.5,48.2c0.1,15.3-26.9,32.6-31,35.2
	c-4.1-2.5-31-19.9-31-35.2V28.5c0-0.3,0.2-0.5,0.5-0.6l30.5-11.2L83,27.8c0.3,0.1,0.5,0.4,0.5,0.6V48.2z M64.5,33.9L46.8,51.5
	l-6.4-6.4c-0.9-0.9-2.2-1.5-3.5-1.5s-2.6,0.5-3.5,1.5c-0.9,0.9-1.5,2.2-1.5,3.5s0.5,2.6,1.5,3.5l9.9,9.9c1,1,2.3,1.5,3.5,1.5
	c1.3,0,2.6-0.5,3.5-1.5l21.2-21.2c1.9-1.9,1.9-5.1,0-7.1C69.6,31.9,66.5,31.9,64.5,33.9z M70.2,39.5L49,60.7c-1.2,1.2-3.1,1.2-4.2,0
	l-9.9-9.9c-0.6-0.6-0.9-1.3-0.9-2.1s0.3-1.6,0.9-2.1c0.6-0.6,1.4-0.9,2.1-0.9c0.8,0,1.5,0.3,2.1,0.9l7.1,7.1c0.4,0.4,1,0.4,1.4,0
	L66,35.3c1.1-1.1,3.1-1.1,4.2,0C71.3,36.4,71.3,38.3,70.2,39.5z M12.5,14v2c0,0.6-0.4,1-1,1s-1-0.4-1-1v-2h-2c-0.6,0-1-0.4-1-1
	s0.4-1,1-1h2v-2c0-0.6,0.4-1,1-1s1,0.4,1,1v2h2c0.6,0,1,0.4,1,1s-0.4,1-1,1H12.5z M22.5,8c0-0.6,0.4-1,1-1h1V6c0-0.6,0.4-1,1-1
	s1,0.4,1,1v1h1c0.6,0,1,0.4,1,1s-0.4,1-1,1h-1v1c0,0.6-0.4,1-1,1s-1-0.4-1-1V9h-1C22.9,9,22.5,8.6,22.5,8z M83.5,91c0,0.6-0.4,1-1,1
	h-2v2c0,0.6-0.4,1-1,1s-1-0.4-1-1v-2h-2c-0.6,0-1-0.4-1-1s0.4-1,1-1h2v-2c0-0.6,0.4-1,1-1s1,0.4,1,1v2h2C83.1,90,83.5,90.4,83.5,91z
	 M83.5,11c0-0.6,0.4-1,1-1h2V8c0-0.6,0.4-1,1-1s1,0.4,1,1v2h2c0.6,0,1,0.4,1,1s-0.4,1-1,1h-2v2c0,0.6-0.4,1-1,1s-1-0.4-1-1v-2h-2
	C83.9,12,83.5,11.6,83.5,11z M88.5,77c-2.2,0-4,1.8-4,4s1.8,4,4,4s4-1.8,4-4S90.7,77,88.5,77z M88.5,83c-1.1,0-2-0.9-2-2s0.9-2,2-2
	s2,0.9,2,2S89.6,83,88.5,83z"/>
</svg>
