<?xml version="1.0" encoding="utf-8"?>
<!-- Generator: Adobe Illustrator 22.1.0, SVG Export Plug-In . SVG Version: 6.00 Build 0)  -->
<svg version="1.1" id="Calque_1" xmlns="http://www.w3.org/2000/svg" xmlns:xlink="http://www.w3.org/1999/xlink" x="0px" y="0px"
	 viewBox="0 0 100 125" style="enable-background:new 0 0 100 125;" xml:space="preserve">
<g>
	<path d="M77,16.5H59v-1c0-0.5-0.5-1-1-1h-2.8c0.5-0.9,0.8-1.9,0.8-3c0-3.3-2.7-6-6-6s-6,2.7-6,6c0,1.1,0.3,2.1,0.8,3H42
		c-0.5,0-1,0.5-1,1v1H23c-1.7,0-3,1.3-3,3v72c0,1.6,1.3,3,3,3h54c1.7,0,3-1.4,3-3v-72C80,17.8,78.7,16.5,77,16.5z M43,16.5h4
		c0.4,0,0.8-0.3,0.9-0.7c0.1-0.4,0-0.9-0.4-1.1c-1-0.8-1.6-1.9-1.6-3.2c0-2.2,1.8-4,4-4s4,1.8,4,4c0,1.3-0.6,2.4-1.6,3.2
		C52,15,51.9,15.4,52,15.8c0.1,0.4,0.5,0.7,0.9,0.7h4v6H43V16.5z M42,24.5h16c0.5,0,1-0.5,1-1v-1h15v66H26v-66h15v1
		C41,24,41.5,24.5,42,24.5z M78,91.5c0,0.5-0.5,1-1,1H23c-0.5,0-1-0.5-1-1v-72c0-0.5,0.5-1,1-1h18v2H25c-0.5,0-1,0.5-1,1v68
		c0,0.5,0.5,1,1,1h50c0.5,0,1-0.5,1-1v-68c0-0.5-0.5-1-1-1H59v-2h18c0.5,0,1,0.5,1,1V91.5z"/>
	<path d="M39,32.5c-3.3,0-6,2.7-6,6s2.7,6,6,6s6-2.7,6-6S42.3,32.5,39,32.5z M39,42.5c-2.2,0-4-1.8-4-4s1.8-4,4-4s4,1.8,4,4
		S41.2,42.5,39,42.5z"/>
	<path d="M59,38.5c0,0.5-0.5,1-1,1h-8c-0.5,0-1-0.5-1-1s0.5-1,1-1h8C58.5,37.5,59,38,59,38.5z"/>
	<path d="M67,43.5c0,0.5-0.5,1-1,1H50c-0.5,0-1-0.5-1-1s0.5-1,1-1h16C66.5,42.5,67,43,67,43.5z"/>
	<path d="M59,56.5c0,0.5-0.5,1-1,1h-8c-0.5,0-1-0.5-1-1s0.5-1,1-1h8C58.5,55.5,59,56,59,56.5z"/>
	<path d="M67,61.5c0,0.5-0.5,1-1,1H50c-0.5,0-1-0.5-1-1s0.5-1,1-1h16C66.5,60.5,67,61,67,61.5z"/>
	<path d="M59,74.5c0,0.5-0.5,1-1,1h-8c-0.5,0-1-0.5-1-1s0.5-1,1-1h8C58.5,73.5,59,74,59,74.5z"/>
	<path d="M67,79.5c0,0.5-0.5,1-1,1H50c-0.5,0-1-0.5-1-1s0.5-1,1-1h16C66.5,78.5,67,79,67,79.5z"/>
	<path d="M39,50.5c-3.3,0-6,2.7-6,6s2.7,6,6,6s6-2.7,6-6S42.3,50.5,39,50.5z M39,60.5c-2.2,0-4-1.8-4-4s1.8-4,4-4s4,1.8,4,4
		S41.2,60.5,39,60.5z"/>
	<path d="M39,68.5c-3.3,0-6,2.7-6,6s2.7,6,6,6s6-2.7,6-6S42.3,68.5,39,68.5z M39,78.5c-2.2,0-4-1.8-4-4s1.8-4,4-4s4,1.8,4,4
		S41.2,78.5,39,78.5z"/>
</g>
</svg>
